<mxfile host="app.diagrams.net" modified="2023-12-12T23:22:11.923Z" agent="Mozilla/5.0 (Windows NT 10.0; Win64; x64) AppleWebKit/537.36 (KHTML, like Gecko) Chrome/119.0.0.0 Safari/537.36 Edg/119.0.0.0" etag="lj5ncZf3Pifo-wOMsIP1" version="22.1.8" type="device">
  <diagram name="Page-1" id="ejmOcS9QMD0s3wDO9qe5">
    <mxGraphModel dx="1729" dy="778" grid="1" gridSize="10" guides="1" tooltips="1" connect="1" arrows="1" fold="1" page="1" pageScale="1" pageWidth="850" pageHeight="1100" math="0" shadow="0">
      <root>
        <mxCell id="0" />
        <mxCell id="1" parent="0" />
        <mxCell id="R2ki5O6JaKe4lEoF2cQ8-1" value="&lt;font style=&quot;font-size: 48px;&quot;&gt;User&lt;/font&gt;" style="rounded=0;whiteSpace=wrap;html=1;" vertex="1" parent="1">
          <mxGeometry x="40" y="120" width="120" height="60" as="geometry" />
        </mxCell>
        <mxCell id="R2ki5O6JaKe4lEoF2cQ8-8" style="edgeStyle=orthogonalEdgeStyle;rounded=0;orthogonalLoop=1;jettySize=auto;html=1;exitX=0;exitY=0.75;exitDx=0;exitDy=0;entryX=1;entryY=0.75;entryDx=0;entryDy=0;" edge="1" parent="1" source="R2ki5O6JaKe4lEoF2cQ8-4" target="R2ki5O6JaKe4lEoF2cQ8-1">
          <mxGeometry relative="1" as="geometry" />
        </mxCell>
        <mxCell id="R2ki5O6JaKe4lEoF2cQ8-4" value="1.0" style="swimlane;whiteSpace=wrap;html=1;" vertex="1" parent="1">
          <mxGeometry x="310" y="105" width="150" height="90" as="geometry" />
        </mxCell>
        <mxCell id="R2ki5O6JaKe4lEoF2cQ8-5" value="&lt;font style=&quot;font-size: 36px;&quot;&gt;Encrypt&lt;/font&gt;" style="text;html=1;align=center;verticalAlign=middle;resizable=0;points=[];autosize=1;strokeColor=none;fillColor=none;" vertex="1" parent="R2ki5O6JaKe4lEoF2cQ8-4">
          <mxGeometry y="25" width="150" height="60" as="geometry" />
        </mxCell>
        <mxCell id="R2ki5O6JaKe4lEoF2cQ8-6" style="edgeStyle=orthogonalEdgeStyle;rounded=0;orthogonalLoop=1;jettySize=auto;html=1;exitX=1;exitY=0.25;exitDx=0;exitDy=0;entryX=-0.008;entryY=0.129;entryDx=0;entryDy=0;entryPerimeter=0;" edge="1" parent="1" source="R2ki5O6JaKe4lEoF2cQ8-1" target="R2ki5O6JaKe4lEoF2cQ8-4">
          <mxGeometry relative="1" as="geometry" />
        </mxCell>
        <mxCell id="R2ki5O6JaKe4lEoF2cQ8-7" value="&lt;font style=&quot;font-size: 18px;&quot;&gt;key&lt;br&gt;note&lt;/font&gt;" style="text;html=1;align=center;verticalAlign=middle;resizable=0;points=[];autosize=1;strokeColor=none;fillColor=none;" vertex="1" parent="1">
          <mxGeometry x="180" y="80" width="60" height="60" as="geometry" />
        </mxCell>
        <mxCell id="R2ki5O6JaKe4lEoF2cQ8-9" value="&lt;font style=&quot;font-size: 18px;&quot;&gt;encrypted note&lt;/font&gt;" style="text;html=1;align=center;verticalAlign=middle;resizable=0;points=[];autosize=1;strokeColor=none;fillColor=none;" vertex="1" parent="1">
          <mxGeometry x="170" y="170" width="140" height="40" as="geometry" />
        </mxCell>
        <mxCell id="R2ki5O6JaKe4lEoF2cQ8-10" value="&lt;font style=&quot;font-size: 48px;&quot;&gt;User&lt;/font&gt;" style="rounded=0;whiteSpace=wrap;html=1;" vertex="1" parent="1">
          <mxGeometry x="50" y="270" width="120" height="60" as="geometry" />
        </mxCell>
        <mxCell id="R2ki5O6JaKe4lEoF2cQ8-11" style="edgeStyle=orthogonalEdgeStyle;rounded=0;orthogonalLoop=1;jettySize=auto;html=1;exitX=0;exitY=0.75;exitDx=0;exitDy=0;entryX=1;entryY=0.75;entryDx=0;entryDy=0;" edge="1" parent="1" source="R2ki5O6JaKe4lEoF2cQ8-12" target="R2ki5O6JaKe4lEoF2cQ8-10">
          <mxGeometry relative="1" as="geometry" />
        </mxCell>
        <mxCell id="R2ki5O6JaKe4lEoF2cQ8-12" value="2.0" style="swimlane;whiteSpace=wrap;html=1;" vertex="1" parent="1">
          <mxGeometry x="320" y="255" width="150" height="90" as="geometry" />
        </mxCell>
        <mxCell id="R2ki5O6JaKe4lEoF2cQ8-13" value="&lt;font style=&quot;font-size: 36px;&quot;&gt;Decrypt&lt;/font&gt;" style="text;html=1;align=center;verticalAlign=middle;resizable=0;points=[];autosize=1;strokeColor=none;fillColor=none;" vertex="1" parent="R2ki5O6JaKe4lEoF2cQ8-12">
          <mxGeometry y="25" width="150" height="60" as="geometry" />
        </mxCell>
        <mxCell id="R2ki5O6JaKe4lEoF2cQ8-14" style="edgeStyle=orthogonalEdgeStyle;rounded=0;orthogonalLoop=1;jettySize=auto;html=1;exitX=1;exitY=0.25;exitDx=0;exitDy=0;entryX=-0.008;entryY=0.129;entryDx=0;entryDy=0;entryPerimeter=0;" edge="1" parent="1" source="R2ki5O6JaKe4lEoF2cQ8-10" target="R2ki5O6JaKe4lEoF2cQ8-12">
          <mxGeometry relative="1" as="geometry" />
        </mxCell>
        <mxCell id="R2ki5O6JaKe4lEoF2cQ8-15" value="&lt;font style=&quot;font-size: 18px;&quot;&gt;encrypted note&lt;br&gt;key&lt;br&gt;&lt;/font&gt;" style="text;html=1;align=center;verticalAlign=middle;resizable=0;points=[];autosize=1;strokeColor=none;fillColor=none;" vertex="1" parent="1">
          <mxGeometry x="160" y="230" width="140" height="60" as="geometry" />
        </mxCell>
        <mxCell id="R2ki5O6JaKe4lEoF2cQ8-16" value="&lt;font style=&quot;font-size: 18px;&quot;&gt;decrypted note&lt;/font&gt;" style="text;html=1;align=center;verticalAlign=middle;resizable=0;points=[];autosize=1;strokeColor=none;fillColor=none;" vertex="1" parent="1">
          <mxGeometry x="180" y="320" width="140" height="40" as="geometry" />
        </mxCell>
      </root>
    </mxGraphModel>
  </diagram>
</mxfile>
